Coordinates
version=1
nRows=11
nColumns=63
inDegrees=yes

Units are S.I. units (second, meters, Newtons, ...)
If the header above contains a line with 'inDegrees', this indicates whether rotational values are in degrees (yes) or radians (no).

endheader
time	pelvis_tilt	pelvis_list	pelvis_rotation	pelvis_tx	pelvis_ty	pelvis_tz	hip_flexion_r	hip_adduction_r	hip_rotation_r	knee_angle_r	knee_angle_r_beta	ankle_angle_r	subtalar_angle_r	mtp_angle_r	hip_flexion_l	hip_adduction_l	hip_rotation_l	knee_angle_l	knee_angle_l_beta	ankle_angle_l	subtalar_angle_l	mtp_angle_l	L5_S1_Flex_Ext	L5_S1_Lat_Bending	L5_S1_axial_rotation	L4_L5_Flex_Ext	L4_L5_Lat_Bending	L4_L5_axial_rotation	L3_L4_Flex_Ext	L3_L4_Lat_Bending	L3_L4_axial_rotation	L2_L3_Flex_Ext	L2_L3_Lat_Bending	L2_L3_axial_rotation	L1_L2_Flex_Ext	L1_L2_Lat_Bending	L1_L2_axial_rotation	L1_T12_Flex_Ext	L1_T12_Lat_Bending	L1_T12_axial_rotation	Abs_r3	Abs_r2	Abs_r1	Abs_t1	Abs_t2	neck_flexion	neck_bending	neck_rotation	arm_flex_r	arm_add_r	arm_rot_r	elbow_flex_r	pro_sup_r	wrist_flex_r	wrist_dev_r	arm_flex_l	arm_add_l	arm_rot_l	elbow_flex_l	pro_sup_l	wrist_flex_l	wrist_dev_l
      5.43333333	     -7.18401889	      0.52460921	     91.79387713	      0.21989577	      0.83730325	      0.58745298	     -8.62276418	     -6.31282750	     -9.15844104	      1.35020491	      0.02356552	     11.37842629	      6.80910880	      0.00000000	     -5.82411915	      5.23289773	      8.99219935	      3.26891775	      0.05705338	     -5.04194493	    -17.75425748	      0.00000000	      0.00796932	     -1.22318125	     -0.45614023	      0.01479983	     -1.62683106	     -0.48464900	      0.01309280	     -2.97404289	     -0.48464900	      0.00910814	     -2.97404289	     -0.39912270	      0.00740031	     -2.49431121	     -0.37061394	      0.00455367	     -1.89470776	     -0.34210517	      0.05692406	    -13.83687095	     -2.53691513	      0.00000000	      0.00000000	     18.14170809	     -3.00759915	    -21.03878090	     12.00364101	     -2.50821152	    175.44037165	      2.47668983	      6.26423593	     -5.45208187	     -3.65990498	     12.08193808	    -14.22094633	    191.20773946	      2.81894484	     10.47164880	    -15.68246212	      0.67099188
      5.45000000	     -7.09045594	      0.45860900	     92.09810611	      0.21949108	      0.83706132	      0.58795229	     -8.58383178	     -6.18401864	     -9.38000626	      1.35209481	      0.02359851	     11.41326567	      6.78019546	      0.00000000	     -5.82113447	      5.10282913	      9.18582244	      3.02751119	      0.05284004	     -5.01964930	    -17.69796234	      0.00000000	      0.00666109	     -1.22116304	     -0.46687444	      0.01237031	     -1.62414685	     -0.49605409	      0.01094350	     -2.96913583	     -0.49605409	      0.00761296	     -2.96913583	     -0.40851514	      0.00618549	     -2.49019568	     -0.37933548	      0.00380615	     -1.89158156	     -0.35015583	      0.04757948	    -13.81404059	     -2.59661558	      0.00000000	      0.00000000	     18.05220947	     -2.77376494	    -21.09489160	     12.03281197	     -2.53192100	    174.57099421	      2.37901450	      6.12666213	     -4.50393455	     -3.82489088	     12.05107073	    -14.24610512	    193.04633605	      2.82737750	      8.96580395	    -16.33013733	      1.16245139
      5.46666667	     -6.98102880	      0.31711869	     92.44568287	      0.21889026	      0.83664986	      0.58853542	     -8.47136857	     -6.04996960	     -9.80033013	      1.37300637	      0.02396348	     11.61388542	      7.05560423	      0.00000000	     -5.72918642	      4.95836964	      9.65905819	      2.80154955	      0.04889626	     -5.03991203	    -17.81371282	      0.00000000	      0.00496704	     -1.21438873	     -0.53443088	      0.00922430	     -1.61513701	     -0.56783281	      0.00816036	     -2.95266475	     -0.56783281	      0.00567684	     -2.95266475	     -0.46762702	      0.00461240	     -2.47638149	     -0.43422509	      0.00283817	     -1.88108814	     -0.40082316	      0.03547910	    -13.73740815	     -2.97234422	      0.00000000	      0.00000000	     18.38716306	     -2.47042621	    -20.85945577	     12.22635730	     -2.50274120	    173.29640232	      2.46681168	      7.14038908	     -3.70192679	     -3.98199236	     12.00642410	    -14.36937367	    190.16006364	      3.29690549	      9.06530700	    -17.19225365	      0.76326188
      5.48333333	     -6.89244735	      0.12531566	     92.75582044	      0.21828694	      0.83611037	      0.58927189	     -8.26357783	     -5.95925374	    -10.77508220	      1.45099996	      0.02532473	     11.99316969	      8.10790734	      0.00000000	     -5.53691499	      4.85139109	     10.08595482	      2.65547824	      0.04634684	     -4.99534363	    -17.85509994	      0.00000000	      0.00526453	     -1.20626251	     -0.61144503	      0.00977675	     -1.60432914	     -0.64966034	      0.00864909	     -2.93290666	     -0.64966034	      0.00601683	     -2.93290666	     -0.53501440	      0.00488864	     -2.45981051	     -0.49679908	      0.00300815	     -1.86850062	     -0.45858377	      0.03760399	    -13.64548274	     -3.40067381	      0.00000000	      0.00000000	     18.97190045	     -1.88099936	    -20.11956276	     12.49871552	     -2.39336527	    175.51420120	      2.49279295	      6.39369623	     -3.36666030	     -3.82732681	     11.97155593	    -14.48043186	    188.45225767	      3.82669555	      6.97714098	    -17.83280546	      0.17353267
      5.50000000	     -6.76834804	     -0.08021728	     92.77369113	      0.21815807	      0.83543896	      0.58989807	     -7.98514481	     -5.84708213	    -10.80145062	      1.52561741	      0.02662705	     12.26375099	      8.20835441	      0.00000000	     -5.38086623	      4.72346595	     10.48396063	      2.41286681	      0.04211247	     -5.05671600	    -18.00153438	      0.00000000	      0.00818464	     -1.19490616	     -0.60673167	      0.01519969	     -1.58922519	     -0.64465240	      0.01344654	     -2.90529484	     -0.64465240	      0.00935422	     -2.90529484	     -0.53089021	      0.00760026	     -2.43665264	     -0.49296948	      0.00467670	     -1.85090964	     -0.45504875	      0.05846205	    -13.51701748	     -3.37445952	      0.00000000	      0.00000000	     19.53865438	     -1.55789224	    -19.96411869	     12.74606540	     -2.34166631	    174.74511717	      2.80518067	      7.40570428	     -2.98220836	     -3.66310099	     12.06885593	    -14.59241441	    184.84821679	      4.60897437	      6.50789385	    -18.29316648	     -0.83562803
      5.51666667	     -6.73240978	     -0.24366058	     92.85445016	      0.21788404	      0.83488615	      0.59067912	     -7.74338053	     -5.84138451	    -12.05926918	      1.63902595	      0.02860640	     12.66100731	      9.84261035	      0.00000000	     -5.19029267	      4.69701709	     10.91819450	      2.32401395	      0.04056170	     -5.12793949	    -18.00247804	      0.00000000	      0.00828575	     -1.19244549	     -0.62609256	      0.01538747	     -1.58595250	     -0.66522334	      0.01361266	     -2.89931196	     -0.66522334	      0.00946979	     -2.89931196	     -0.54783099	      0.00769415	     -2.43163484	     -0.50870020	      0.00473448	     -1.84709806	     -0.46956942	      0.05918431	    -13.48918183	     -3.48213897	      0.00000000	      0.00000000	     20.11056160	     -0.93076361	    -19.54093894	     13.03441970	     -2.21606796	    177.30199438	      2.98318336	      6.27117960	     -2.79105182	     -3.57586605	     12.13709108	    -14.72708250	    181.84226735	      5.30035342	      5.72575500	    -18.47201252	     -1.72449057
      5.53333333	     -6.71396895	     -0.40794774	     92.72639016	      0.21797031	      0.83436824	      0.59138468	     -7.46679831	     -5.84065122	    -11.97125221	      1.71653479	      0.02995918	     12.75201633	      9.77100115	      0.00000000	     -5.02226266	      4.69542066	     11.35165175	      2.18799373	      0.03818769	     -5.36303438	    -18.11237658	      0.00000000	      0.01596867	     -1.19259661	     -0.57993059	      0.02965542	     -1.58615349	     -0.61617625	      0.02623493	     -2.89967939	     -0.61617625	      0.01825060	     -2.89967939	     -0.50743926	      0.01482851	     -2.43194300	     -0.47119360	      0.00912450	     -1.84733214	     -0.43494794	      0.11406263	    -13.49089134	     -3.22539995	      0.00000000	      0.00000000	     20.44565248	     -0.67994996	    -19.77845190	     13.20056889	     -2.17261984	    176.18705268	      3.29971318	      7.24410702	     -2.44958061	     -3.52251681	     12.30081954	    -14.82526139	    179.52293181	      5.82946716	      5.85447644	    -18.30703992	     -2.47162762
      5.55000000	     -6.73557715	     -0.48880288	     92.36144532	      0.21830795	      0.83403480	      0.59202610	     -7.22945548	     -5.91499035	    -11.83792142	      1.79852071	      0.03139011	     12.75381379	      9.94810962	      0.00000000	     -4.95344681	      4.75512313	     11.50460425	      2.04355904	      0.03566683	     -5.60547492	    -18.12471684	      0.00000000	      0.02219400	     -1.19022010	     -0.50724247	      0.04121648	     -1.58299274	     -0.53894512	      0.03646252	     -2.89390116	     -0.53894512	      0.02536552	     -2.89390116	     -0.44383716	      0.02060935	     -2.42709683	     -0.41213450	      0.01268165	     -1.84365094	     -0.38043185	      0.15852952	    -13.46400784	     -2.82113043	      0.00000000	      0.00000000	     20.70759618	     -0.39586259	    -19.58720673	     13.28919310	     -2.15568126	    176.09164909	      3.36271103	      8.47464472	     -2.40238569	     -3.66979140	     12.45777020	    -14.81141404	    178.69250317	      6.00004509	      7.03721182	    -17.96907766	     -2.44789408
      5.56666667	     -6.77908289	     -0.59968581	     92.31617904	      0.21803552	      0.83383580	      0.59276151	     -6.99532312	     -6.01570897	    -13.12507502	      1.94156234	      0.03388666	     12.93085264	     11.60507923	      0.00000000	     -4.73816144	      4.83834235	     11.90016560	      2.12329574	      0.03705850	     -5.81591502	    -18.17855374	      0.00000000	      0.02909569	     -1.18622811	     -0.50247007	      0.05403361	     -1.57768338	     -0.53387445	      0.04780131	     -2.88419502	     -0.53387445	      0.03325346	     -2.88419502	     -0.43966131	      0.02701826	     -2.41895636	     -0.40825694	      0.01662528	     -1.83746734	     -0.37685256	      0.20782760	    -13.41884959	     -2.79458781	      0.00000000	      0.00000000	     20.91283292	     -0.18851945	    -19.33441525	     13.29354496	     -2.08197940	    179.05281627	      3.07971641	      7.53981163	     -2.37878851	     -3.43056411	     12.48754423	    -14.61315393	    182.46751380	      5.32175025	      6.60401745	    -17.14151152	     -1.64687714
      5.58333333	     -6.85467793	     -0.63933033	     91.95525288	      0.21814978	      0.83378487	      0.59322185	     -6.80452481	     -6.17118707	    -13.21380591	      2.04191750	      0.03563818	     12.93703189	     12.08087276	      0.00000000	     -4.66582824	      4.97293585	     11.82172211	      2.10731934	      0.03677966	     -6.02105510	    -18.12535017	      0.00000000	      0.03378656	     -1.18299678	     -0.42155928	      0.06274502	     -1.57338571	     -0.44790674	      0.05550794	     -2.87633836	     -0.44790674	      0.03861466	     -2.87633836	     -0.36886437	      0.03137420	     -2.41236703	     -0.34251692	      0.01930564	     -1.83246201	     -0.31616946	      0.24133401	    -13.38229613	     -2.34458626	      0.00000000	      0.00000000	     20.98364065	     -0.21856456	    -19.16660142	     13.13679810	     -2.11394664	    179.53206823	      2.86828703	      8.01621718	     -2.78020415	     -3.23964665	     12.61796887	    -14.37896773	    186.56168648	      4.66891923	      6.89717265	    -16.56342939	     -0.73559535
      5.60000000	     -6.96635080	     -0.67158375	     91.94934300	      0.21764549	      0.83388279	      0.59346510	     -6.73504676	     -6.32774211	    -13.84807294	      2.08946282	      0.03646801	     12.89891663	     12.75604307	      0.00000000	     -4.60188676	      5.12113784	     12.11718463	      2.12915892	      0.03716083	     -6.22951713	    -18.18012642	      0.00000000	      0.03844511	     -1.18080760	     -0.43755966	      0.07139641	     -1.57047411	     -0.46490714	      0.06316147	     -2.87101560	     -0.46490714	      0.04393892	     -2.87101560	     -0.38286471	      0.03570013	     -2.40790286	     -0.35551723	      0.02196754	     -1.82907097	     -0.32816975	      0.27460958	    -13.35753175	     -2.43357558	      0.00000000	      0.00000000	     21.03283915	     -0.34653124	    -18.62159712	     12.92322839	     -2.11589296	    179.98095704	      2.55587407	      9.66275240	     -3.57838089	     -3.06248097	     12.61350312	    -14.22579614	    189.27995455	      4.00012410	      8.33455617	    -15.97078103	      0.20584217
